<svg xmlns="http://www.w3.org/2000/svg" viewBox="0 0 84 19" enable-background="new 0 0 84 19"><g class="arts-color" fill="#FEBE10"><path class="arts-color" d="M10.4 4.7h3.6l-4.8 13h-4.2l-4.6-13h4l2.9 9.4 3.1-9.4zM22.5 8.8c-.1-1.2-1-1.8-2.5-1.8-2.1 0-2.5 2.4-2.5 4.4 0 1.9.4 4.1 2.5 4.1 1.5 0 2.4-.7 2.5-1.9h3.8c.1 3.3-3.1 4.4-6.2 4.4-4.1 0-6.2-2.4-6.2-6.8s2.2-6.7 6.2-6.8c3.2 0 6.3 1.1 6.2 4.4h-3.8zM39.6 4.7v8.3c0 3.6-2.9 5.1-6.2 5.1-3.3 0-6.2-1.4-6.2-5.1v-8.3h3.6v8.1c.1 1.7.9 2.7 2.6 2.7 1.7 0 2.6-1 2.6-2.7v-8.1h3.6z"/></g><g class="arts-color" fill="#EE3041"><path class="arts-color" d="M41.5 8.4c0-1.6.7-2.6 1.8-3.2 1.1-.6 2.4-.8 3.8-.8 2.6 0 5.5 1 5.5 4.9v7.1c0 .6.1 1 .2 1.4h-3.5c-.1-.6-.1-1.2-.1-1.7h-.1c-.9 1.5-2.2 2.1-4 2.1-2.4 0-4.2-1.4-4.2-3.9 0-.9.4-3.1 2.8-4.1 1.5-.7 3.5-.7 5.1-.7v-1.3c0-.5-.4-1.6-1.8-1.6-1.3 0-1.8 1.3-1.7 1.9h-3.8zm3.1 5.3c0 1.1.8 1.9 1.9 1.9 2.1 0 2.2-2.4 2.2-3.9-1.4-.1-4.1-.1-4.1 2zM57.5 4.8l.1 2.4h.1c.8-2 2.5-2.6 4.4-2.5v3.4h-1.7c-.6.1-1.5.4-1.9 1-.4.7-.5 1.4-.5 2.3v6.4h-3.8v-10.4c0-.5-.1-1.6-.1-2.6h3.4z"/></g><g class="arts-color" fill="#EE3041"><path class="arts-color" d="M64.6 4.8v-2.6l3.9-1.4v4h2.9v2.6h-2.9v6c0 1.7.3 2.2 1.6 2.2l1.2-.1v2.3c-.4.2-2.5.4-3 .4-3 0-3.7-1.6-3.7-4.4v-6.4h-2.6v-2.6h2.6zM79.5 8.2c0-.8-.8-1.2-1.7-1.2-1.1 0-1.6.3-1.6 1.2 0 2 7.4.9 7.4 5.7 0 2.8-3.5 4.3-5.9 4.3-3 0-5.7-1.2-5.7-4.2h3.6c.1 1 1 1.6 2.1 1.6s1.9-.4 1.9-1.4c0-1-1.9-1.5-2.6-1.7-2.5-.6-4.8-1.1-4.8-4.2 0-2.7 3.3-3.9 5.6-3.9 2.7 0 5.1 1 5.2 3.8h-3.5z"/></g><g class="arts-dk" fill="#AAB2B1"><path class="arts-dk" d="M10.4 4.7h3.6l-4.8 13h-4.2l-4.6-13h4l2.9 9.4 3.1-9.4zM22.5 8.8c-.1-1.2-1-1.8-2.5-1.8-2.1 0-2.5 2.4-2.5 4.4 0 1.9.4 4.1 2.5 4.1 1.5 0 2.4-.7 2.5-1.9h3.8c.1 3.3-3.1 4.4-6.2 4.4-4.1 0-6.2-2.4-6.2-6.8s2.2-6.7 6.2-6.8c3.2 0 6.3 1.1 6.2 4.4h-3.8zM39.6 4.7v8.3c0 3.6-2.9 5.1-6.2 5.1-3.3 0-6.2-1.4-6.2-5.1v-8.3h3.6v8.1c.1 1.7.9 2.7 2.6 2.7 1.7 0 2.6-1 2.6-2.7v-8.1h3.6z"/></g><g class="arts-dk" fill="#474D4D"><path class="arts-dk" d="M41.5 8.4c0-1.6.7-2.6 1.8-3.2 1.1-.6 2.4-.8 3.8-.8 2.6 0 5.5 1 5.5 4.9v7.1c0 .6.1 1 .2 1.4h-3.5c-.1-.6-.1-1.2-.1-1.7h-.1c-.9 1.5-2.2 2.1-4 2.1-2.4 0-4.2-1.4-4.2-3.9 0-.9.4-3.1 2.8-4.1 1.5-.7 3.5-.7 5.1-.7v-1.3c0-.5-.4-1.6-1.8-1.6-1.3 0-1.8 1.3-1.7 1.9h-3.8zm3.1 5.3c0 1.1.8 1.9 1.9 1.9 2.1 0 2.2-2.4 2.2-3.9-1.4-.1-4.1-.1-4.1 2zM57.5 4.8l.1 2.4h.1c.8-2 2.5-2.6 4.4-2.5v3.4h-1.7c-.6.1-1.5.4-1.9 1-.4.7-.5 1.4-.5 2.3v6.4h-3.8v-10.4c0-.5-.1-1.6-.1-2.6h3.4z"/></g><g class="arts-dk" fill="#474D4D"><path class="arts-dk" d="M64.6 4.8v-2.6l3.9-1.4v4h2.9v2.6h-2.9v6c0 1.7.3 2.2 1.6 2.2l1.2-.1v2.3c-.4.2-2.5.4-3 .4-3 0-3.7-1.6-3.7-4.4v-6.4h-2.6v-2.6h2.6zM79.5 8.2c0-.8-.8-1.2-1.7-1.2-1.1 0-1.6.3-1.6 1.2 0 2 7.4.9 7.4 5.7 0 2.8-3.5 4.3-5.9 4.3-3 0-5.7-1.2-5.7-4.2h3.6c.1 1 1 1.6 2.1 1.6s1.9-.4 1.9-1.4c0-1-1.9-1.5-2.6-1.7-2.5-.6-4.8-1.1-4.8-4.2 0-2.7 3.3-3.9 5.6-3.9 2.7 0 5.1 1 5.2 3.8h-3.5z"/></g></svg>