<svg xmlns="http://www.w3.org/2000/svg" xmlns:xlink="http://www.w3.org/1999/xlink" viewBox="0 0 345 18" enable-background="new 0 0 345 18"><path class="vcu-color vcu-name" fill="#474D4D" d="M68.7 11.9h1.9l2.1-5.8h-1.6l-1.4 4.2-1.3-4.2h-1.8l2.1 5.8zm7.9 0h1.6v-5.8h-1.6v5.8zm6 0h1.6v-2.3h.7c.7 0 .7.3.8 1 .1.5.1 1 .2 1.3h1.7l-.3-1.4c-.1-.9-.2-1.4-1.3-1.5.2 0 .5-.1.9-.3.3-.2.5-.4.5-1.1 0-.6-.2-.9-.4-1.1-.3-.4-.7-.4-1.8-.4h-2.7v5.8h.1zm1.6-4.7h.6c.5 0 1.1 0 1.1.7 0 .2-.1.5-.4.7h-1.2999999999999998v-1.4zm13 .6c0-.3 0-.8-.4-1.2-.5-.4-1.2-.6-2.1-.6-.7 0-1.7.1-2.4.7s-.9 1.6-.9 2.3c0 .9.3 1.8 1.1 2.4.7.5 1.5.6 2.2.6.9 0 1.7-.1 2.5-.3v-3.1h-2.7v1.1h1.2v1.1c-.3.1-.6.1-.9.1-1 0-1.7-.6-1.7-1.9 0-1 .4-1.9 1.5-1.9.4 0 .9.2 1 .8h1.6v-.1zm4.4 4.1h1.6v-5.8h-1.6v5.8zm6 0h1.4v-4.5l2 4.5h2.2v-5.8h-1.4v4.3l-2-4.3h-2.2v5.8zm9.9 0h1.6v-5.8h-1.6v5.8zm5.5 0h1.6l.4-1.2h2.3l.4 1.2h1.8l-2.3-5.8h-1.9l-2.3 5.8zm2.4-2.2l.8-2.4.7 2.4h-1.5zm19.3-1.8c0-.2 0-.7-.5-1.2s-1.2-.7-2.1-.7c-.8 0-1.6.2-2.2.8-.5.6-.7 1.4-.7 2.2 0 .6.1 1.5.7 2.2.6.7 1.6.8 2.2.8.8 0 2.6-.2 2.6-2h-1.7c0 .2-.1.8-1 .8-1.2 0-1.2-1.5-1.2-1.8 0-1.1.3-1.9 1.3-1.9.5 0 .9.2.9.8h1.7zm3.9 1.1c0 2.1 1.4 3 3 3 1.4 0 3-.7 3-3 0-1.4-.6-3.1-2.9-3.1-.4 0-1.5.1-2.3.8-.8.8-.8 1.9-.8 2.3zm1.6 0c0-1 .3-1.9 1.3-1.9.4 0 .7.1 1 .4.2.3.4.7.4 1.5s-.2 1.9-1.3 1.9-1.4-1-1.4-1.9zm8.5 2.9h1.4v-4.9l1.3 4.9h1.4l1.4-4.8-.1 4.8h1.5v-5.8h-2.5l-.9 3.9-1-3.9h-2.5v5.8zm11.3 0h1.4v-4.9l1.3 4.9h1.4l1.4-4.8-.1 4.8h1.5v-5.8h-2.5l-.9 3.9-1-3.9h-2.5v5.8zm11.1-2.9c0 2.1 1.4 3 3 3 1.4 0 3-.7 3-3 0-1.4-.6-3.1-2.9-3.1-.4 0-1.5.1-2.3.8-.7.8-.8 1.9-.8 2.3zm1.7 0c0-1 .3-1.9 1.3-1.9.4 0 .7.1 1 .4.2.3.4.7.4 1.5s-.2 1.9-1.3 1.9c-1.2 0-1.4-1-1.4-1.9zm8.5 2.9h1.4v-4.5l2 4.5h2.2v-5.8h-1.4v4.3l-1.9-4.3h-2.2v5.8h-.1zm10.5 0h1.9l1.1-4.3 1 4.3h1.9l1-5.8h-1.4l-.5 4.2-.9-4.2h-2l-.9 4.2-.5-4.2h-1.6l.9 5.8zm10.8 0h4.4v-1.1h-2.8v-1.3h2.6v-1.1h-2.6v-1.2h2.7v-1.1h-4.3v5.8zm8.1 0h1.6l.4-1.2h2.3l.4 1.2h1.8l-2.3-5.8h-1.9l-2.3 5.8zm2.4-2.2l.8-2.4.7 2.4h-1.5zm8 2.2h4.2v-1.1h-2.6v-4.7h-1.6v5.8zm8.6 0h1.6v-4.6h1.8v-1.2h-5.2v1.1h1.8v4.7zm7.3 0h1.6v-2.3h1.9v2.3h1.6v-5.8h-1.6v2.3h-1.9v-2.3h-1.6v5.8zm15.5-5.8v3.3c0 .9 0 2.6 2.7 2.6.7 0 1.8-.1 2.3-.8.4-.4.4-1.1.4-1.8v-3.3h-1.6v3.4c0 .6-.1 1.4-1.2 1.4-.4 0-.8-.2-1-.5-.2-.2-.2-.6-.2-.9v-3.4h-1.4zm10 5.8h1.4v-4.5l2 4.5h2.2v-5.8h-1.4v4.3l-2-4.3h-2.2v5.8zm9.9 0h1.6v-5.8h-1.6v5.8zm7.6 0h1.9l2.1-5.8h-1.6l-1.4 4.2-1.3-4.2h-1.8l2.1 5.8zm7.9 0h4.4v-1.1h-2.8v-1.3h2.6v-1.1h-2.6v-1.2h2.7v-1.1h-4.3v5.8zm8.6 0h1.6v-2.3h.7c.7 0 .7.3.8 1 .1.5.1 1 .2 1.3h1.7l-.3-1.4c-.1-.9-.2-1.4-1.3-1.4.2 0 .5-.1.9-.3.3-.2.5-.4.5-1.1 0-.6-.2-.9-.4-1.1-.3-.4-.7-.4-1.8-.4h-2.7v5.7h.1zm1.6-4.7h.6c.5 0 1.1 0 1.1.7 0 .2-.1.5-.4.7h-1.2999999999999998v-1.4zm7.3 2.9c0 .2 0 .8.4 1.3.5.6 1.5.7 2.1.7 1.4 0 2.5-.6 2.5-1.9 0-1.2-.9-1.5-1.7-1.7l-1.1-.3c-.2-.1-.6-.2-.6-.6 0-.3.3-.6.8-.6.8 0 .8.6.8.8h1.6c0-.6-.1-1.8-2.4-1.8-1.7 0-2.4.9-2.4 1.8 0 1.2 1 1.5 1.4 1.6l1.4.4c.4.1.5.3.5.6 0 .7-.7.7-.9.7-1 0-1-.7-1-.9h-1.4v-.1zm9.2 1.8h1.6v-5.8h-1.6v5.8zm7.3 0h1.6v-4.6h1.8v-1.2h-5.2v1.1h1.8v4.7zm6.9-5.8l2.2 3.7v2.1h1.6v-2l2.3-3.7h-1.6l-1.3 2.4-1.3-2.4h-1.9v-.1z"/><path class="vcu-color" fill="#FDC010" d="M17.2 2.4h4.1l3 9.5 3.1-9.5h3.6l-4.8 13.2h-4.3zM39.1 6.5c-.2-1.3-1.1-1.8-2.1-1.8-2.2 0-2.9 2-2.9 4.4 0 .8 0 4.1 2.8 4.1 1.9 0 2.1-1.4 2.2-1.9h3.8c0 4.1-4.2 4.5-5.9 4.5-1.3 0-3.5-.2-5-1.8-1.4-1.5-1.7-3.6-1.7-5 0-1.8.4-3.6 1.7-5 1.3-1.5 3.1-1.9 5-1.9 2.1 0 3.8.5 4.8 1.6 1.1 1.1 1.1 2.3 1.1 2.8h-3.8zM47.6 2.4v7.8c0 .7.1 1.4.4 2 .5.7 1.3 1.1 2.2 1.1 2.3 0 2.6-1.9 2.6-3.2v-7.7h3.6v7.6c0 1.5-.2 3-1 4-1.3 1.6-3.6 1.9-5.3 1.9-6.2 0-6.2-3.9-6.2-6v-7.5h3.7z"/><defs><path id="a" d="M.2.6h17v16.8h-17z"/></defs><clipPath class="vcu-color" id="b"><use xlink:href="#a" overflow="visible"/></clipPath><path class="vcu-color" clip-path="url(#b)" fill="#FEBE10" d="M8.7.6c-4.7 0-8.5 3.8-8.5 8.4 0 4.7 3.8 8.4 8.4 8.4s8.4-3.8 8.4-8.4c.1-4.6-3.7-8.4-8.3-8.4"/><path class="vcu-color" clip-path="url(#b)" fill="#FEBE10" d="M28.4 2.2l-3.3 9.8-3-9.8h-4.2l4.8 13.5h4.5l4.9-13.5zM38.2 13.4c-2.9 0-2.9-3.4-2.9-4.2 0-2.5.7-4.6 3-4.6 1.1 0 2 .5 2.2 1.9h3.9c0-.5 0-1.7-1.1-2.9-1.1-1.1-2.7-1.7-4.9-1.7-2 0-3.8.4-5.1 2-1.3 1.4-1.7 3.3-1.7 5.2 0 1.4.3 3.6 1.7 5.1 1.5 1.6 3.8 1.8 5.1 1.8 1.8 0 6.1-.4 6.1-4.6h-3.9c-.2.5-.4 2-2.4 2"/><path class="vcu-color" clip-path="url(#b)" fill="#FEBE10" d="M54.6 2.2v7.9c0 1.4-.3 3.3-2.7 3.3-.9 0-1.8-.4-2.3-1.1-.4-.6-.4-1.3-.4-2v-8.1h-3.8v7.7c0 2.2 0 6.2 6.4 6.2 1.7 0 4.1-.3 5.4-1.9.8-1 1.1-2.6 1.1-4.1v-7.9h-3.7z"/><path class="vcu-color" clip-path="url(#b)" d="M8.6 13.9c-.3 0-.6.3-.6.6s.3.6.6.6.6-.3.6-.6-.2-.6-.6-.6M9.5 14.5c0 .1 0 .2-.1.4l3-.4-3-.4c.1.2.1.3.1.4"/><path class="vcu-color" clip-path="url(#b)" d="M4.9 14.5l3 .4c0-.1-.1-.2-.1-.4 0-.1 0-.3.1-.4l-3 .4zM8.6 3.8c.3 0 .5-.2.5-.5s-.2-.5-.5-.5c-.2 0-.5.2-.5.5s.3.5.5.5M7.9 3.3c0-.1 0-.2.1-.3l-2.1.3 2.1.3c-.1-.1-.1-.2-.1-.3"/><path class="vcu-color" clip-path="url(#b)" d="M11.4 3.3l-2.1-.3.1.3c0 .1 0 .2-.1.3l2.1-.3zM8.2 7c0-.1-.1-.2-.7-.2s-.8.2-.8.2.1 0 .2.1c.1.2.1.8.1.8l-.1 5v.1s.1.1.5.1.6-.1.6-.1v-5.1s0-.5.1-.8l.1-.1M10.3 13c.1 0 .1-.1 0 0v-5s0-.6.1-.8l.2-.2s-.1-.2-.7-.2c-.7 0-.8.2-.8.2v.1s.1 0 .2.1c.1.2.1.8.1.8v5.1s.1.1.5.1l.4-.2"/><path class="vcu-color" clip-path="url(#b)" d="M8.7.9c-4.5 0-8.1 3.6-8.1 8.1s3.6 8.1 8.1 8.1 8.1-3.6 8.1-8.1c-.1-4.5-3.7-8.1-8.1-8.1m0 .9c2.2 0 4.2 1 5.6 2.6h-3v.3h-5v-.2h-3c1.1-1.7 3.1-2.7 5.4-2.7m5 10.1h-.8l-.4-5.3h.5l.7 5.3zm-8.8-5.3l-.4 5.3h-.8l.7-5.3h.5zm-3.4 2.4c0-1.6.5-3.2 1.5-4.4 0 0 .2.2.3.4.2.3.1.8.1.8l-.9 6.8c-.7-1-1-2.3-1-3.6m7.2 7.2c-2.4 0-4.4-1.1-5.8-2.9h2.4c.2 0 .2-.3.2-.3l.5-6.8h5.3l.5 6.8s0 .3.2.3h2.4c-1.3 1.8-3.4 2.9-5.7 2.9m5.3-10.3s-.1-.5.1-.8c.1-.1.3-.4.3-.4v-.1c.9 1.2 1.5 2.7 1.5 4.4 0 1.3-.4 2.6-1 3.6l-.9-6.7z"/><path class="vcu-dk vcu-name" fill="#474D4D" d="M68.7 11.9h1.9l2.1-5.8h-1.6l-1.4 4.2-1.3-4.2h-1.8l2.1 5.8zm7.9 0h1.6v-5.8h-1.6v5.8zm6 0h1.6v-2.3h.7c.7 0 .7.3.8 1 .1.5.1 1 .2 1.3h1.7l-.3-1.4c-.1-.9-.2-1.4-1.3-1.5.2 0 .5-.1.9-.3.3-.2.5-.4.5-1.1 0-.6-.2-.9-.4-1.1-.3-.4-.7-.4-1.8-.4h-2.7v5.8h.1zm1.6-4.7h.6c.5 0 1.1 0 1.1.7 0 .2-.1.5-.4.7h-1.2999999999999998v-1.4zm13 .6c0-.3 0-.8-.4-1.2-.5-.4-1.2-.6-2.1-.6-.7 0-1.7.1-2.4.7s-.9 1.6-.9 2.3c0 .9.3 1.8 1.1 2.4.7.5 1.5.6 2.2.6.9 0 1.7-.1 2.5-.3v-3.1h-2.7v1.1h1.2v1.1c-.3.1-.6.1-.9.1-1 0-1.7-.6-1.7-1.9 0-1 .4-1.9 1.5-1.9.4 0 .9.2 1 .8h1.6v-.1zm4.4 4.1h1.6v-5.8h-1.6v5.8zm6 0h1.4v-4.5l2 4.5h2.2v-5.8h-1.4v4.3l-2-4.3h-2.2v5.8zm9.9 0h1.6v-5.8h-1.6v5.8zm5.5 0h1.6l.4-1.2h2.3l.4 1.2h1.8l-2.3-5.8h-1.9l-2.3 5.8zm2.4-2.2l.8-2.4.7 2.4h-1.5zm19.3-1.8c0-.2 0-.7-.5-1.2s-1.2-.7-2.1-.7c-.8 0-1.6.2-2.2.8-.5.6-.7 1.4-.7 2.2 0 .6.1 1.5.7 2.2.6.7 1.6.8 2.2.8.8 0 2.6-.2 2.6-2h-1.7c0 .2-.1.8-1 .8-1.2 0-1.2-1.5-1.2-1.8 0-1.1.3-1.9 1.3-1.9.5 0 .9.2.9.8h1.7zm3.9 1.1c0 2.1 1.4 3 3 3 1.4 0 3-.7 3-3 0-1.4-.6-3.1-2.9-3.1-.4 0-1.5.1-2.3.8-.8.8-.8 1.9-.8 2.3zm1.6 0c0-1 .3-1.9 1.3-1.9.4 0 .7.1 1 .4.2.3.4.7.4 1.5s-.2 1.9-1.3 1.9-1.4-1-1.4-1.9zm8.5 2.9h1.4v-4.9l1.3 4.9h1.4l1.4-4.8-.1 4.8h1.5v-5.8h-2.5l-.9 3.9-1-3.9h-2.5v5.8zm11.3 0h1.4v-4.9l1.3 4.9h1.4l1.4-4.8-.1 4.8h1.5v-5.8h-2.5l-.9 3.9-1-3.9h-2.5v5.8zm11.1-2.9c0 2.1 1.4 3 3 3 1.4 0 3-.7 3-3 0-1.4-.6-3.1-2.9-3.1-.4 0-1.5.1-2.3.8-.7.8-.8 1.9-.8 2.3zm1.7 0c0-1 .3-1.9 1.3-1.9.4 0 .7.1 1 .4.2.3.4.7.4 1.5s-.2 1.9-1.3 1.9c-1.2 0-1.4-1-1.4-1.9zm8.5 2.9h1.4v-4.5l2 4.5h2.2v-5.8h-1.4v4.3l-1.9-4.3h-2.2v5.8h-.1zm10.5 0h1.9l1.1-4.3 1 4.3h1.9l1-5.8h-1.4l-.5 4.2-.9-4.2h-2l-.9 4.2-.5-4.2h-1.6l.9 5.8zm10.8 0h4.4v-1.1h-2.8v-1.3h2.6v-1.1h-2.6v-1.2h2.7v-1.1h-4.3v5.8zm8.1 0h1.6l.4-1.2h2.3l.4 1.2h1.8l-2.3-5.8h-1.9l-2.3 5.8zm2.4-2.2l.8-2.4.7 2.4h-1.5zm8 2.2h4.2v-1.1h-2.6v-4.7h-1.6v5.8zm8.6 0h1.6v-4.6h1.8v-1.2h-5.2v1.1h1.8v4.7zm7.3 0h1.6v-2.3h1.9v2.3h1.6v-5.8h-1.6v2.3h-1.9v-2.3h-1.6v5.8zm15.5-5.8v3.3c0 .9 0 2.6 2.7 2.6.7 0 1.8-.1 2.3-.8.4-.4.4-1.1.4-1.8v-3.3h-1.6v3.4c0 .6-.1 1.4-1.2 1.4-.4 0-.8-.2-1-.5-.2-.2-.2-.6-.2-.9v-3.4h-1.4zm10 5.8h1.4v-4.5l2 4.5h2.2v-5.8h-1.4v4.3l-2-4.3h-2.2v5.8zm9.9 0h1.6v-5.8h-1.6v5.8zm7.6 0h1.9l2.1-5.8h-1.6l-1.4 4.2-1.3-4.2h-1.8l2.1 5.8zm7.9 0h4.4v-1.1h-2.8v-1.3h2.6v-1.1h-2.6v-1.2h2.7v-1.1h-4.3v5.8zm8.6 0h1.6v-2.3h.7c.7 0 .7.3.8 1 .1.5.1 1 .2 1.3h1.7l-.3-1.4c-.1-.9-.2-1.4-1.3-1.4.2 0 .5-.1.9-.3.3-.2.5-.4.5-1.1 0-.6-.2-.9-.4-1.1-.3-.4-.7-.4-1.8-.4h-2.7v5.7h.1zm1.6-4.7h.6c.5 0 1.1 0 1.1.7 0 .2-.1.5-.4.7h-1.2999999999999998v-1.4zm7.3 2.9c0 .2 0 .8.4 1.3.5.6 1.5.7 2.1.7 1.4 0 2.5-.6 2.5-1.9 0-1.2-.9-1.5-1.7-1.7l-1.1-.3c-.2-.1-.6-.2-.6-.6 0-.3.3-.6.8-.6.8 0 .8.6.8.8h1.6c0-.6-.1-1.8-2.4-1.8-1.7 0-2.4.9-2.4 1.8 0 1.2 1 1.5 1.4 1.6l1.4.4c.4.1.5.3.5.6 0 .7-.7.7-.9.7-1 0-1-.7-1-.9h-1.4v-.1zm9.2 1.8h1.6v-5.8h-1.6v5.8zm7.3 0h1.6v-4.6h1.8v-1.2h-5.2v1.1h1.8v4.7zm6.9-5.8l2.2 3.7v2.1h1.6v-2l2.3-3.7h-1.6l-1.3 2.4-1.3-2.4h-1.9v-.1z"/><path class="vcu-dk" fill="#484D4D" d="M17.2 2.4h4.1l3 9.5 3.1-9.5h3.6l-4.8 13.2h-4.3zM39.1 6.5c-.2-1.3-1.1-1.8-2.1-1.8-2.2 0-2.9 2-2.9 4.4 0 .8 0 4.1 2.8 4.1 1.9 0 2.1-1.4 2.2-1.9h3.8c0 4.1-4.2 4.5-5.9 4.5-1.3 0-3.5-.2-5-1.8-1.4-1.5-1.7-3.6-1.7-5 0-1.8.4-3.6 1.7-5 1.3-1.5 3.1-1.9 5-1.9 2.1 0 3.8.5 4.8 1.6 1.1 1.1 1.1 2.3 1.1 2.8h-3.8zM47.6 2.4v7.8c0 .7.1 1.4.4 2 .5.7 1.3 1.1 2.2 1.1 2.3 0 2.6-1.9 2.6-3.2v-7.7h3.6v7.6c0 1.5-.2 3-1 4-1.3 1.6-3.6 1.9-5.3 1.9-6.2 0-6.2-3.9-6.2-6v-7.5h3.7z"/><defs><path id="a" d="M.2.6h17v16.8h-17z"/></defs><clipPath class="vcu-dk" id="b"><use xlink:href="#a" overflow="visible"/></clipPath><path class="vcu-dk" clip-path="url(#b)" fill="#FEBE10" d="M28.4 2.2l-3.3 9.8-3-9.8h-4.2l4.8 13.5h4.5l4.9-13.5zM38.2 13.4c-2.9 0-2.9-3.4-2.9-4.2 0-2.5.7-4.6 3-4.6 1.1 0 2 .5 2.2 1.9h3.9c0-.5 0-1.7-1.1-2.9-1.1-1.1-2.7-1.7-4.9-1.7-2 0-3.8.4-5.1 2-1.3 1.4-1.7 3.3-1.7 5.2 0 1.4.3 3.6 1.7 5.1 1.5 1.6 3.8 1.8 5.1 1.8 1.8 0 6.1-.4 6.1-4.6h-3.9c-.2.5-.4 2-2.4 2"/><path class="vcu-dk" clip-path="url(#b)" fill="#FEBE10" d="M54.6 2.2v7.9c0 1.4-.3 3.3-2.7 3.3-.9 0-1.8-.4-2.3-1.1-.4-.6-.4-1.3-.4-2v-8.1h-3.8v7.7c0 2.2 0 6.2 6.4 6.2 1.7 0 4.1-.3 5.4-1.9.8-1 1.1-2.6 1.1-4.1v-7.9h-3.7z"/><path class="vcu-dk" clip-path="url(#b)" fill="#484D4D" d="M8.6 13.9c-.3 0-.6.3-.6.6s.3.6.6.6.6-.3.6-.6-.2-.6-.6-.6M9.5 14.5c0 .1 0 .2-.1.4l3-.4-3-.4c.1.2.1.3.1.4"/><path class="vcu-dk" clip-path="url(#b)" fill="#484D4D" d="M4.9 14.5l3 .4c0-.1-.1-.2-.1-.4 0-.1 0-.3.1-.4l-3 .4zM8.6 3.8c.3 0 .5-.2.5-.5s-.2-.5-.5-.5c-.2 0-.5.2-.5.5s.3.5.5.5M7.9 3.3c0-.1 0-.2.1-.3l-2.1.3 2.1.3c-.1-.1-.1-.2-.1-.3"/><path class="vcu-dk" clip-path="url(#b)" fill="#484D4D" d="M11.4 3.3l-2.1-.3.1.3c0 .1 0 .2-.1.3l2.1-.3zM8.2 7c0-.1-.1-.2-.7-.2s-.8.2-.8.2.1 0 .2.1c.1.2.1.8.1.8l-.1 5v.1s.1.1.5.1.6-.1.6-.1v-5.1s0-.5.1-.8l.1-.1M10.3 13c.1 0 .1-.1 0 0v-5s0-.6.1-.8l.2-.2s-.1-.2-.7-.2c-.7 0-.8.2-.8.2v.1s.1 0 .2.1c.1.2.1.8.1.8v5.1s.1.1.5.1l.4-.2"/><path class="vcu-dk" clip-path="url(#b)" fill="#484D4D" d="M8.7.9c-4.5 0-8.1 3.6-8.1 8.1s3.6 8.1 8.1 8.1 8.1-3.6 8.1-8.1c-.1-4.5-3.7-8.1-8.1-8.1m0 .9c2.2 0 4.2 1 5.6 2.6h-3v.3h-5v-.2h-3c1.1-1.7 3.1-2.7 5.4-2.7m5 10.1h-.8l-.4-5.3h.5l.7 5.3zm-8.8-5.3l-.4 5.3h-.8l.7-5.3h.5zm-3.4 2.4c0-1.6.5-3.2 1.5-4.4 0 0 .2.2.3.4.2.3.1.8.1.8l-.9 6.8c-.7-1-1-2.3-1-3.6m7.2 7.2c-2.4 0-4.4-1.1-5.8-2.9h2.4c.2 0 .2-.3.2-.3l.5-6.8h5.3l.5 6.8s0 .3.2.3h2.4c-1.3 1.8-3.4 2.9-5.7 2.9m5.3-10.3s-.1-.5.1-.8c.1-.1.3-.4.3-.4v-.1c.9 1.2 1.5 2.7 1.5 4.4 0 1.3-.4 2.6-1 3.6l-.9-6.7z"/></svg>